<mxfile host="app.diagrams.net" agent="Mozilla/5.0 (Macintosh; Intel Mac OS X 10_15_7) AppleWebKit/537.36 (KHTML, like Gecko) Chrome/131.0.0.0 Safari/537.36" version="25.0.1">
  <diagram name="Page-1" id="_XltgIZefnD32FXJti6f">
    <mxGraphModel dx="1437" dy="1049" grid="1" gridSize="10" guides="1" tooltips="1" connect="1" arrows="1" fold="1" page="0" pageScale="1" pageWidth="827" pageHeight="1169" math="0" shadow="0">
      <root>
        <mxCell id="0" />
        <mxCell id="1" parent="0" />
        <mxCell id="8lJpn536mVf1GUUGxUtD-2" value="&amp;lt;&amp;lt;Enumeration&amp;gt;&amp;gt;&lt;br&gt;Signal" style="swimlane;fontStyle=1;align=center;verticalAlign=middle;childLayout=stackLayout;horizontal=1;startSize=29;horizontalStack=0;resizeParent=1;resizeParentMax=0;resizeLast=0;collapsible=0;marginBottom=0;html=1;whiteSpace=wrap;fillColor=#fff2cc;strokeColor=#d6b656;" parent="1" vertex="1">
          <mxGeometry x="190" y="52" width="140" height="70" as="geometry" />
        </mxCell>
        <mxCell id="8lJpn536mVf1GUUGxUtD-3" value="+HIGH&lt;div&gt;+LOW&lt;/div&gt;" style="text;html=1;strokeColor=#d6b656;fillColor=#fff2cc;align=left;verticalAlign=middle;spacingLeft=4;spacingRight=4;overflow=hidden;rotatable=0;points=[[0,0.5],[1,0.5]];portConstraint=eastwest;whiteSpace=wrap;" parent="8lJpn536mVf1GUUGxUtD-2" vertex="1">
          <mxGeometry y="29" width="140" height="41" as="geometry" />
        </mxCell>
        <mxCell id="8lJpn536mVf1GUUGxUtD-5" value="&lt;i&gt;&amp;lt;&amp;lt;Interface&amp;gt;&amp;gt;&lt;br&gt;NamedElement&lt;/i&gt;" style="swimlane;fontStyle=1;align=center;verticalAlign=middle;childLayout=stackLayout;horizontal=1;startSize=29;horizontalStack=0;resizeParent=1;resizeParentMax=0;resizeLast=0;collapsible=0;marginBottom=0;html=1;whiteSpace=wrap;swimlaneFillColor=default;" parent="1" vertex="1">
          <mxGeometry x="540" y="66" width="140" height="54" as="geometry" />
        </mxCell>
        <mxCell id="8lJpn536mVf1GUUGxUtD-6" value="+name: String" style="text;html=1;strokeColor=none;fillColor=none;align=center;verticalAlign=middle;spacingLeft=4;spacingRight=4;overflow=hidden;rotatable=0;points=[[0,0.5],[1,0.5]];portConstraint=eastwest;whiteSpace=wrap;" parent="8lJpn536mVf1GUUGxUtD-5" vertex="1">
          <mxGeometry y="29" width="140" height="25" as="geometry" />
        </mxCell>
        <mxCell id="8lJpn536mVf1GUUGxUtD-37" style="edgeStyle=orthogonalEdgeStyle;rounded=0;orthogonalLoop=1;jettySize=auto;html=1;endArrow=block;endFill=0;strokeWidth=1;startSize=6;strokeColor=default;" parent="1" source="8lJpn536mVf1GUUGxUtD-8" target="8lJpn536mVf1GUUGxUtD-5" edge="1">
          <mxGeometry relative="1" as="geometry" />
        </mxCell>
        <mxCell id="YHKDQ4LGRL8nmd3NoLnM-26" style="edgeStyle=orthogonalEdgeStyle;rounded=0;orthogonalLoop=1;jettySize=auto;html=1;entryX=1;entryY=0.5;entryDx=0;entryDy=0;" parent="1" source="8lJpn536mVf1GUUGxUtD-8" target="8lJpn536mVf1GUUGxUtD-11" edge="1">
          <mxGeometry relative="1" as="geometry">
            <Array as="points">
              <mxPoint x="610" y="327" />
            </Array>
          </mxGeometry>
        </mxCell>
        <mxCell id="YHKDQ4LGRL8nmd3NoLnM-91" value="&lt;span style=&quot;font-size: 12px; text-wrap: wrap;&quot;&gt;initial&lt;/span&gt;&lt;div style=&quot;font-size: 12px; text-wrap: wrap;&quot;&gt;1..1&lt;/div&gt;" style="edgeLabel;html=1;align=center;verticalAlign=middle;resizable=0;points=[];" parent="YHKDQ4LGRL8nmd3NoLnM-26" vertex="1" connectable="0">
          <mxGeometry x="-0.2182" y="-7" relative="1" as="geometry">
            <mxPoint x="-1" as="offset" />
          </mxGeometry>
        </mxCell>
        <mxCell id="YHKDQ4LGRL8nmd3NoLnM-76" style="edgeStyle=orthogonalEdgeStyle;rounded=0;orthogonalLoop=1;jettySize=auto;html=1;exitX=1;exitY=0.75;exitDx=0;exitDy=0;entryX=0.5;entryY=0;entryDx=0;entryDy=0;startArrow=diamond;startFill=1;" parent="1" source="8lJpn536mVf1GUUGxUtD-8" target="8lJpn536mVf1GUUGxUtD-12" edge="1">
          <mxGeometry relative="1" as="geometry" />
        </mxCell>
        <mxCell id="YHKDQ4LGRL8nmd3NoLnM-88" value="&lt;span style=&quot;font-size: 12px; text-wrap: wrap;&quot;&gt;bricks&lt;/span&gt;&lt;div style=&quot;font-size: 12px; text-wrap: wrap;&quot;&gt;1..*&lt;/div&gt;" style="edgeLabel;html=1;align=center;verticalAlign=middle;resizable=0;points=[];" parent="YHKDQ4LGRL8nmd3NoLnM-76" vertex="1" connectable="0">
          <mxGeometry x="0.0323" relative="1" as="geometry">
            <mxPoint x="-1" as="offset" />
          </mxGeometry>
        </mxCell>
        <mxCell id="8lJpn536mVf1GUUGxUtD-8" value="App" style="swimlane;fontStyle=1;align=center;verticalAlign=middle;childLayout=stackLayout;horizontal=1;startSize=29;horizontalStack=0;resizeParent=1;resizeParentMax=0;resizeLast=0;collapsible=0;marginBottom=0;html=1;whiteSpace=wrap;swimlaneFillColor=#e6e6e6;fillColor=#E6E6E6;" parent="1" vertex="1">
          <mxGeometry x="540" y="216" width="140" height="54" as="geometry" />
        </mxCell>
        <mxCell id="YHKDQ4LGRL8nmd3NoLnM-29" style="edgeStyle=orthogonalEdgeStyle;rounded=0;orthogonalLoop=1;jettySize=auto;html=1;startArrow=diamond;startFill=1;" parent="1" source="8lJpn536mVf1GUUGxUtD-11" target="8lJpn536mVf1GUUGxUtD-17" edge="1">
          <mxGeometry relative="1" as="geometry">
            <Array as="points">
              <mxPoint x="350" y="410" />
              <mxPoint x="520" y="410" />
            </Array>
          </mxGeometry>
        </mxCell>
        <mxCell id="YHKDQ4LGRL8nmd3NoLnM-92" value="&lt;span style=&quot;font-size: 12px; text-wrap: wrap;&quot;&gt;transitions&lt;/span&gt;&lt;div style=&quot;font-size: 12px; text-wrap: wrap;&quot;&gt;1..*&lt;/div&gt;" style="edgeLabel;html=1;align=center;verticalAlign=middle;resizable=0;points=[];" parent="YHKDQ4LGRL8nmd3NoLnM-29" vertex="1" connectable="0">
          <mxGeometry x="0.0643" y="6" relative="1" as="geometry">
            <mxPoint as="offset" />
          </mxGeometry>
        </mxCell>
        <mxCell id="YHKDQ4LGRL8nmd3NoLnM-32" style="edgeStyle=orthogonalEdgeStyle;rounded=0;orthogonalLoop=1;jettySize=auto;html=1;entryX=0.5;entryY=0;entryDx=0;entryDy=0;startArrow=diamond;startFill=1;" parent="1" source="8lJpn536mVf1GUUGxUtD-11" target="8lJpn536mVf1GUUGxUtD-18" edge="1">
          <mxGeometry relative="1" as="geometry" />
        </mxCell>
        <mxCell id="YHKDQ4LGRL8nmd3NoLnM-94" value="&lt;span style=&quot;font-size: 12px; text-wrap: wrap;&quot;&gt;actions&lt;/span&gt;&lt;div style=&quot;font-size: 12px; text-wrap: wrap;&quot;&gt;1..*&lt;/div&gt;" style="edgeLabel;html=1;align=center;verticalAlign=middle;resizable=0;points=[];" parent="YHKDQ4LGRL8nmd3NoLnM-32" vertex="1" connectable="0">
          <mxGeometry x="0.2416" y="-4" relative="1" as="geometry">
            <mxPoint y="1" as="offset" />
          </mxGeometry>
        </mxCell>
        <mxCell id="8lJpn536mVf1GUUGxUtD-11" value="State" style="swimlane;fontStyle=1;align=center;verticalAlign=middle;childLayout=stackLayout;horizontal=1;startSize=29;horizontalStack=0;resizeParent=1;resizeParentMax=0;resizeLast=0;collapsible=0;marginBottom=0;html=1;whiteSpace=wrap;fillColor=#60a917;strokeColor=#2D7600;fontColor=#ffffff;swimlaneFillColor=#60a917;" parent="1" vertex="1">
          <mxGeometry x="265" y="300" width="140" height="54" as="geometry" />
        </mxCell>
        <mxCell id="8lJpn536mVf1GUUGxUtD-12" value="&lt;i&gt;&amp;lt;&amp;lt;Abstract&amp;gt;&amp;gt;&lt;br&gt;Brick&lt;/i&gt;" style="swimlane;fontStyle=1;align=center;verticalAlign=middle;childLayout=stackLayout;horizontal=1;startSize=29;horizontalStack=0;resizeParent=1;resizeParentMax=0;resizeLast=0;collapsible=0;marginBottom=0;html=1;whiteSpace=wrap;fillColor=#f0a30a;fontColor=#000000;strokeColor=#BD7000;swimlaneFillColor=#f0a30a;" parent="1" vertex="1">
          <mxGeometry x="930" y="306" width="140" height="60" as="geometry" />
        </mxCell>
        <mxCell id="8lJpn536mVf1GUUGxUtD-21" value="+pin: Integer&lt;br&gt;+name: String" style="text;html=1;strokeColor=none;fillColor=none;align=center;verticalAlign=middle;spacingLeft=4;spacingRight=4;overflow=hidden;rotatable=0;points=[[0,0.5],[1,0.5]];portConstraint=eastwest;whiteSpace=wrap;" parent="8lJpn536mVf1GUUGxUtD-12" vertex="1">
          <mxGeometry y="29" width="140" height="31" as="geometry" />
        </mxCell>
        <mxCell id="E5M-gK-LCJvFjl0A9TKK-18" style="edgeStyle=orthogonalEdgeStyle;rounded=0;orthogonalLoop=1;jettySize=auto;html=1;startArrow=diamond;startFill=1;" parent="1" source="8lJpn536mVf1GUUGxUtD-17" target="E5M-gK-LCJvFjl0A9TKK-3" edge="1">
          <mxGeometry relative="1" as="geometry">
            <Array as="points">
              <mxPoint x="520" y="540" />
              <mxPoint x="650" y="540" />
            </Array>
          </mxGeometry>
        </mxCell>
        <mxCell id="E5M-gK-LCJvFjl0A9TKK-19" value="condition&lt;div&gt;1 .. 1&lt;/div&gt;" style="edgeLabel;html=1;align=center;verticalAlign=middle;resizable=0;points=[];" parent="E5M-gK-LCJvFjl0A9TKK-18" vertex="1" connectable="0">
          <mxGeometry x="-0.1143" y="1" relative="1" as="geometry">
            <mxPoint x="11" y="-6" as="offset" />
          </mxGeometry>
        </mxCell>
        <mxCell id="YHKDQ4LGRL8nmd3NoLnM-28" style="edgeStyle=orthogonalEdgeStyle;rounded=0;orthogonalLoop=1;jettySize=auto;html=1;" parent="1" source="8lJpn536mVf1GUUGxUtD-17" edge="1">
          <mxGeometry relative="1" as="geometry">
            <mxPoint x="310" y="350" as="targetPoint" />
          </mxGeometry>
        </mxCell>
        <mxCell id="YHKDQ4LGRL8nmd3NoLnM-93" value="&lt;span style=&quot;font-size: 12px; text-wrap: wrap;&quot;&gt;next&amp;nbsp;&lt;/span&gt;&lt;div&gt;&lt;span style=&quot;font-size: 12px; text-wrap: wrap;&quot;&gt;1..1&lt;/span&gt;&lt;/div&gt;" style="edgeLabel;html=1;align=center;verticalAlign=middle;resizable=0;points=[];" parent="YHKDQ4LGRL8nmd3NoLnM-28" vertex="1" connectable="0">
          <mxGeometry x="0.3378" y="6" relative="1" as="geometry">
            <mxPoint x="6" y="-18" as="offset" />
          </mxGeometry>
        </mxCell>
        <mxCell id="8lJpn536mVf1GUUGxUtD-17" value="Transition" style="swimlane;fontStyle=1;align=center;verticalAlign=middle;childLayout=stackLayout;horizontal=1;startSize=29;horizontalStack=0;resizeParent=1;resizeParentMax=0;resizeLast=0;collapsible=0;marginBottom=0;html=1;whiteSpace=wrap;fillColor=#60a917;strokeColor=#2D7600;fontColor=#ffffff;swimlaneFillColor=#60a917;" parent="1" vertex="1">
          <mxGeometry x="450" y="450" width="140" height="54" as="geometry" />
        </mxCell>
        <mxCell id="8lJpn536mVf1GUUGxUtD-18" value="&amp;lt;&amp;lt;Abstract&amp;gt;&amp;gt;&lt;br&gt;Action" style="swimlane;fontStyle=1;align=center;verticalAlign=middle;childLayout=stackLayout;horizontal=1;startSize=29;horizontalStack=0;resizeParent=1;resizeParentMax=0;resizeLast=0;collapsible=0;marginBottom=0;html=1;whiteSpace=wrap;fillColor=#60a917;strokeColor=#2D7600;fontColor=#ffffff;swimlaneFillColor=#60a917;" parent="1" vertex="1">
          <mxGeometry x="100" y="450" width="140" height="54" as="geometry" />
        </mxCell>
        <mxCell id="8lJpn536mVf1GUUGxUtD-32" style="edgeStyle=orthogonalEdgeStyle;rounded=0;orthogonalLoop=1;jettySize=auto;html=1;entryX=0.5;entryY=0;entryDx=0;entryDy=0;exitX=0;exitY=0.5;exitDx=0;exitDy=0;startArrow=diamond;startFill=1;" parent="1" source="8lJpn536mVf1GUUGxUtD-8" target="8lJpn536mVf1GUUGxUtD-11" edge="1">
          <mxGeometry relative="1" as="geometry">
            <mxPoint x="520" y="243" as="sourcePoint" />
          </mxGeometry>
        </mxCell>
        <mxCell id="YHKDQ4LGRL8nmd3NoLnM-90" value="&lt;span style=&quot;font-size: 12px; text-wrap: wrap;&quot;&gt;states&lt;/span&gt;&lt;div style=&quot;font-size: 12px; text-wrap: wrap;&quot;&gt;1..*&lt;/div&gt;" style="edgeLabel;html=1;align=center;verticalAlign=middle;resizable=0;points=[];" parent="8lJpn536mVf1GUUGxUtD-32" vertex="1" connectable="0">
          <mxGeometry x="-0.1194" y="-7" relative="1" as="geometry">
            <mxPoint x="-1" as="offset" />
          </mxGeometry>
        </mxCell>
        <mxCell id="E5M-gK-LCJvFjl0A9TKK-1" value="&amp;lt;&amp;lt;Enumeration&amp;gt;&amp;gt;&lt;br&gt;BooleanOperator" style="swimlane;fontStyle=1;align=center;verticalAlign=middle;childLayout=stackLayout;horizontal=1;startSize=29;horizontalStack=0;resizeParent=1;resizeParentMax=0;resizeLast=0;collapsible=0;marginBottom=0;html=1;whiteSpace=wrap;fillColor=#fff2cc;strokeColor=#d6b656;" parent="1" vertex="1">
          <mxGeometry x="20" y="52" width="140" height="70" as="geometry" />
        </mxCell>
        <mxCell id="E5M-gK-LCJvFjl0A9TKK-2" value="+AND&lt;div&gt;+OR&lt;/div&gt;" style="text;html=1;strokeColor=#d6b656;fillColor=#fff2cc;align=left;verticalAlign=middle;spacingLeft=4;spacingRight=4;overflow=hidden;rotatable=0;points=[[0,0.5],[1,0.5]];portConstraint=eastwest;whiteSpace=wrap;" parent="E5M-gK-LCJvFjl0A9TKK-1" vertex="1">
          <mxGeometry y="29" width="140" height="41" as="geometry" />
        </mxCell>
        <mxCell id="E5M-gK-LCJvFjl0A9TKK-3" value="&lt;i&gt;&amp;lt;&amp;lt;Abstract&amp;gt;&amp;gt;&lt;br&gt;ConditionTree&lt;/i&gt;" style="swimlane;fontStyle=1;align=center;verticalAlign=middle;childLayout=stackLayout;horizontal=1;startSize=29;horizontalStack=0;resizeParent=1;resizeParentMax=0;resizeLast=0;collapsible=0;marginBottom=0;html=1;whiteSpace=wrap;fillColor=#1ba1e2;strokeColor=#006EAF;fontColor=#ffffff;swimlaneFillColor=#60a917;" parent="1" vertex="1">
          <mxGeometry x="580" y="618" width="140" height="54" as="geometry" />
        </mxCell>
        <mxCell id="YHKDQ4LGRL8nmd3NoLnM-1" value="" style="text;html=1;strokeColor=#006EAF;fillColor=#1ba1e2;align=center;verticalAlign=middle;spacingLeft=4;spacingRight=4;overflow=hidden;rotatable=0;points=[[0,0.5],[1,0.5]];portConstraint=eastwest;whiteSpace=wrap;fontColor=#ffffff;" parent="E5M-gK-LCJvFjl0A9TKK-3" vertex="1">
          <mxGeometry y="29" width="140" height="25" as="geometry" />
        </mxCell>
        <mxCell id="YHKDQ4LGRL8nmd3NoLnM-118" style="edgeStyle=orthogonalEdgeStyle;rounded=0;orthogonalLoop=1;jettySize=auto;html=1;endArrow=block;endFill=0;" parent="1" source="E5M-gK-LCJvFjl0A9TKK-5" edge="1">
          <mxGeometry relative="1" as="geometry">
            <mxPoint x="650" y="670" as="targetPoint" />
            <Array as="points">
              <mxPoint x="520" y="700" />
              <mxPoint x="650" y="700" />
            </Array>
          </mxGeometry>
        </mxCell>
        <mxCell id="E5M-gK-LCJvFjl0A9TKK-5" value="BooleanCondition" style="swimlane;fontStyle=1;align=center;verticalAlign=middle;childLayout=stackLayout;horizontal=1;startSize=29;horizontalStack=0;resizeParent=1;resizeParentMax=0;resizeLast=0;collapsible=0;marginBottom=0;html=1;whiteSpace=wrap;fillColor=#1ba1e2;strokeColor=#006EAF;fontColor=#ffffff;swimlaneFillColor=#60a917;" parent="1" vertex="1">
          <mxGeometry x="460" y="730" width="140" height="54" as="geometry" />
        </mxCell>
        <mxCell id="8lJpn536mVf1GUUGxUtD-28" value="+value: OPERATOR" style="text;html=1;strokeColor=#006EAF;fillColor=#1ba1e2;align=center;verticalAlign=middle;spacingLeft=4;spacingRight=4;overflow=hidden;rotatable=0;points=[[0,0.5],[1,0.5]];portConstraint=eastwest;whiteSpace=wrap;fontColor=#ffffff;" parent="E5M-gK-LCJvFjl0A9TKK-5" vertex="1">
          <mxGeometry y="29" width="140" height="25" as="geometry" />
        </mxCell>
        <mxCell id="E5M-gK-LCJvFjl0A9TKK-14" style="edgeStyle=orthogonalEdgeStyle;rounded=0;orthogonalLoop=1;jettySize=auto;html=1;entryX=0;entryY=0.5;entryDx=0;entryDy=0;startArrow=diamond;startFill=1;" parent="1" source="8lJpn536mVf1GUUGxUtD-28" target="E5M-gK-LCJvFjl0A9TKK-3" edge="1">
          <mxGeometry relative="1" as="geometry">
            <Array as="points">
              <mxPoint x="410" y="760" />
              <mxPoint x="410" y="645" />
            </Array>
          </mxGeometry>
        </mxCell>
        <mxCell id="E5M-gK-LCJvFjl0A9TKK-17" value="trees&lt;div&gt;2 .. 2&lt;/div&gt;" style="edgeLabel;html=1;align=center;verticalAlign=middle;resizable=0;points=[];" parent="E5M-gK-LCJvFjl0A9TKK-14" vertex="1" connectable="0">
          <mxGeometry x="-0.2771" y="1" relative="1" as="geometry">
            <mxPoint y="10" as="offset" />
          </mxGeometry>
        </mxCell>
        <mxCell id="YHKDQ4LGRL8nmd3NoLnM-116" style="edgeStyle=orthogonalEdgeStyle;rounded=0;orthogonalLoop=1;jettySize=auto;html=1;endArrow=block;endFill=0;" parent="1" source="YHKDQ4LGRL8nmd3NoLnM-2" edge="1">
          <mxGeometry relative="1" as="geometry">
            <mxPoint x="650" y="670" as="targetPoint" />
          </mxGeometry>
        </mxCell>
        <mxCell id="YHKDQ4LGRL8nmd3NoLnM-120" style="edgeStyle=orthogonalEdgeStyle;rounded=0;orthogonalLoop=1;jettySize=auto;html=1;exitX=0.75;exitY=0;exitDx=0;exitDy=0;entryX=0.5;entryY=1;entryDx=0;entryDy=0;" parent="1" source="YHKDQ4LGRL8nmd3NoLnM-2" edge="1" target="YHKDQ4LGRL8nmd3NoLnM-99">
          <mxGeometry relative="1" as="geometry">
            <mxPoint x="760" y="590" as="targetPoint" />
            <Array as="points">
              <mxPoint x="755" y="730" />
            </Array>
          </mxGeometry>
        </mxCell>
        <mxCell id="YHKDQ4LGRL8nmd3NoLnM-121" value="sensor&lt;div&gt;1 .. 1&lt;/div&gt;" style="edgeLabel;html=1;align=center;verticalAlign=middle;resizable=0;points=[];" parent="YHKDQ4LGRL8nmd3NoLnM-120" vertex="1" connectable="0">
          <mxGeometry x="0.388" y="2" relative="1" as="geometry">
            <mxPoint as="offset" />
          </mxGeometry>
        </mxCell>
        <mxCell id="YHKDQ4LGRL8nmd3NoLnM-2" value="DigitalCondition" style="swimlane;fontStyle=1;align=center;verticalAlign=middle;childLayout=stackLayout;horizontal=1;startSize=29;horizontalStack=0;resizeParent=1;resizeParentMax=0;resizeLast=0;collapsible=0;marginBottom=0;html=1;whiteSpace=wrap;fillColor=#1ba1e2;strokeColor=#006EAF;swimlaneFillColor=#60a917;fontColor=#ffffff;" parent="1" vertex="1">
          <mxGeometry x="630" y="730" width="140" height="54" as="geometry" />
        </mxCell>
        <mxCell id="YHKDQ4LGRL8nmd3NoLnM-3" value="+value: SIGNAL" style="text;html=1;strokeColor=#006EAF;fillColor=#1ba1e2;align=center;verticalAlign=middle;spacingLeft=4;spacingRight=4;overflow=hidden;rotatable=0;points=[[0,0.5],[1,0.5]];portConstraint=eastwest;whiteSpace=wrap;fontColor=#ffffff;" parent="YHKDQ4LGRL8nmd3NoLnM-2" vertex="1">
          <mxGeometry y="29" width="140" height="25" as="geometry" />
        </mxCell>
        <mxCell id="YHKDQ4LGRL8nmd3NoLnM-9" value="&amp;lt;&amp;lt;Enumeration&amp;gt;&amp;gt;&lt;br&gt;Comparator" style="swimlane;fontStyle=1;align=center;verticalAlign=middle;childLayout=stackLayout;horizontal=1;startSize=29;horizontalStack=0;resizeParent=1;resizeParentMax=0;resizeLast=0;collapsible=0;marginBottom=0;html=1;whiteSpace=wrap;fillColor=#fff2cc;strokeColor=#d6b656;" parent="1" vertex="1">
          <mxGeometry x="20" y="144" width="140" height="120" as="geometry" />
        </mxCell>
        <mxCell id="YHKDQ4LGRL8nmd3NoLnM-10" value="&lt;div&gt;+LT&lt;/div&gt;&lt;div&gt;+GT&lt;/div&gt;&lt;div&gt;+GEQ&lt;/div&gt;&lt;div&gt;+LEQ&lt;/div&gt;&lt;div&gt;+EQ&lt;/div&gt;&lt;div&gt;+NEQ&lt;/div&gt;&lt;div&gt;&lt;br&gt;&lt;/div&gt;" style="text;html=1;strokeColor=#d6b656;fillColor=#fff2cc;align=left;verticalAlign=middle;spacingLeft=4;spacingRight=4;overflow=hidden;rotatable=0;points=[[0,0.5],[1,0.5]];portConstraint=eastwest;whiteSpace=wrap;" parent="YHKDQ4LGRL8nmd3NoLnM-9" vertex="1">
          <mxGeometry y="29" width="140" height="91" as="geometry" />
        </mxCell>
        <mxCell id="YHKDQ4LGRL8nmd3NoLnM-95" style="edgeStyle=orthogonalEdgeStyle;rounded=0;orthogonalLoop=1;jettySize=auto;html=1;entryX=1;entryY=0.5;entryDx=0;entryDy=0;exitX=0.5;exitY=1;exitDx=0;exitDy=0;" parent="1" source="YHKDQ4LGRL8nmd3NoLnM-14" target="YHKDQ4LGRL8nmd3NoLnM-69" edge="1">
          <mxGeometry relative="1" as="geometry">
            <Array as="points">
              <mxPoint x="260" y="910" />
              <mxPoint x="1420" y="910" />
              <mxPoint x="1420" y="164" />
            </Array>
            <mxPoint x="270.0000000000002" y="654.0000000000002" as="sourcePoint" />
            <mxPoint x="940" y="162.5" as="targetPoint" />
          </mxGeometry>
        </mxCell>
        <mxCell id="YHKDQ4LGRL8nmd3NoLnM-96" value="value&lt;div&gt;1 .. 1&lt;/div&gt;" style="edgeLabel;html=1;align=center;verticalAlign=middle;resizable=0;points=[];" parent="YHKDQ4LGRL8nmd3NoLnM-95" vertex="1" connectable="0">
          <mxGeometry x="-0.883" y="-1" relative="1" as="geometry">
            <mxPoint x="381" y="94" as="offset" />
          </mxGeometry>
        </mxCell>
        <mxCell id="YHKDQ4LGRL8nmd3NoLnM-14" value="AnalogAction" style="swimlane;fontStyle=1;align=center;verticalAlign=middle;childLayout=stackLayout;horizontal=1;startSize=29;horizontalStack=0;resizeParent=1;resizeParentMax=0;resizeLast=0;collapsible=0;marginBottom=0;html=1;whiteSpace=wrap;fillColor=#60a917;strokeColor=#2D7600;fontColor=#ffffff;swimlaneFillColor=#60a917;" parent="1" vertex="1">
          <mxGeometry x="190" y="600.0000000000001" width="140" height="54" as="geometry" />
        </mxCell>
        <mxCell id="YHKDQ4LGRL8nmd3NoLnM-18" value="" style="edgeStyle=orthogonalEdgeStyle;rounded=0;orthogonalLoop=1;jettySize=auto;html=1;endArrow=block;endFill=0;" parent="1" source="YHKDQ4LGRL8nmd3NoLnM-12" edge="1">
          <mxGeometry relative="1" as="geometry">
            <mxPoint x="170.00000000000023" y="504" as="targetPoint" />
            <Array as="points">
              <mxPoint x="100" y="552" />
              <mxPoint x="170" y="552" />
            </Array>
          </mxGeometry>
        </mxCell>
        <mxCell id="YHKDQ4LGRL8nmd3NoLnM-12" value="DigitalAction" style="swimlane;fontStyle=1;align=center;verticalAlign=middle;childLayout=stackLayout;horizontal=1;startSize=29;horizontalStack=0;resizeParent=1;resizeParentMax=0;resizeLast=0;collapsible=0;marginBottom=0;html=1;whiteSpace=wrap;fillColor=#60a917;strokeColor=#2D7600;fontColor=#ffffff;swimlaneFillColor=#60a917;" parent="1" vertex="1">
          <mxGeometry x="30" y="600" width="140" height="54" as="geometry" />
        </mxCell>
        <mxCell id="YHKDQ4LGRL8nmd3NoLnM-13" value="+value: SIGNAL" style="text;html=1;strokeColor=none;fillColor=none;align=center;verticalAlign=middle;spacingLeft=4;spacingRight=4;overflow=hidden;rotatable=0;points=[[0,0.5],[1,0.5]];portConstraint=eastwest;whiteSpace=wrap;" parent="YHKDQ4LGRL8nmd3NoLnM-12" vertex="1">
          <mxGeometry y="29" width="140" height="25" as="geometry" />
        </mxCell>
        <mxCell id="YHKDQ4LGRL8nmd3NoLnM-19" style="edgeStyle=orthogonalEdgeStyle;rounded=0;orthogonalLoop=1;jettySize=auto;html=1;exitX=0.5;exitY=0;exitDx=0;exitDy=0;entryX=0.497;entryY=1.004;entryDx=0;entryDy=0;entryPerimeter=0;endArrow=block;endFill=0;" parent="1" source="YHKDQ4LGRL8nmd3NoLnM-14" edge="1">
          <mxGeometry relative="1" as="geometry">
            <mxPoint x="169.57999999999993" y="504.10000000000014" as="targetPoint" />
            <Array as="points">
              <mxPoint x="260" y="552" />
              <mxPoint x="170" y="552" />
            </Array>
          </mxGeometry>
        </mxCell>
        <mxCell id="YHKDQ4LGRL8nmd3NoLnM-82" style="edgeStyle=orthogonalEdgeStyle;rounded=0;orthogonalLoop=1;jettySize=auto;html=1;exitX=1;exitY=0.5;exitDx=0;exitDy=0;entryX=1;entryY=0.5;entryDx=0;entryDy=0;" parent="1" source="YHKDQ4LGRL8nmd3NoLnM-43" target="YHKDQ4LGRL8nmd3NoLnM-68" edge="1">
          <mxGeometry relative="1" as="geometry">
            <Array as="points">
              <mxPoint x="1370" y="757" />
              <mxPoint x="1370" y="149" />
            </Array>
          </mxGeometry>
        </mxCell>
        <mxCell id="YHKDQ4LGRL8nmd3NoLnM-113" value="value&amp;nbsp;&lt;div&gt;1 .. 1&lt;/div&gt;" style="edgeLabel;html=1;align=center;verticalAlign=middle;resizable=0;points=[];" parent="YHKDQ4LGRL8nmd3NoLnM-82" vertex="1" connectable="0">
          <mxGeometry x="-0.7834" y="-3" relative="1" as="geometry">
            <mxPoint x="21" y="-1" as="offset" />
          </mxGeometry>
        </mxCell>
        <mxCell id="YHKDQ4LGRL8nmd3NoLnM-117" style="edgeStyle=orthogonalEdgeStyle;rounded=0;orthogonalLoop=1;jettySize=auto;html=1;endArrow=block;endFill=0;" parent="1" source="YHKDQ4LGRL8nmd3NoLnM-43" edge="1">
          <mxGeometry relative="1" as="geometry">
            <mxPoint x="650" y="670" as="targetPoint" />
            <Array as="points">
              <mxPoint x="875" y="700" />
              <mxPoint x="650" y="700" />
            </Array>
          </mxGeometry>
        </mxCell>
        <mxCell id="YHKDQ4LGRL8nmd3NoLnM-123" style="edgeStyle=orthogonalEdgeStyle;rounded=0;orthogonalLoop=1;jettySize=auto;html=1;entryX=0.5;entryY=1;entryDx=0;entryDy=0;" parent="1" source="YHKDQ4LGRL8nmd3NoLnM-43" target="YHKDQ4LGRL8nmd3NoLnM-104" edge="1">
          <mxGeometry relative="1" as="geometry">
            <Array as="points">
              <mxPoint x="915" y="610" />
              <mxPoint x="915" y="610" />
            </Array>
            <mxPoint x="920" y="510" as="targetPoint" />
          </mxGeometry>
        </mxCell>
        <mxCell id="YHKDQ4LGRL8nmd3NoLnM-124" value="sensor&amp;nbsp;&lt;div&gt;1 .. 1&lt;/div&gt;" style="edgeLabel;html=1;align=center;verticalAlign=middle;resizable=0;points=[];" parent="YHKDQ4LGRL8nmd3NoLnM-123" vertex="1" connectable="0">
          <mxGeometry x="0.2682" relative="1" as="geometry">
            <mxPoint y="12" as="offset" />
          </mxGeometry>
        </mxCell>
        <mxCell id="YHKDQ4LGRL8nmd3NoLnM-43" value="AnalogCondition" style="swimlane;fontStyle=1;align=center;verticalAlign=middle;childLayout=stackLayout;horizontal=1;startSize=29;horizontalStack=0;resizeParent=1;resizeParentMax=0;resizeLast=0;collapsible=0;marginBottom=0;html=1;whiteSpace=wrap;fillColor=#1ba1e2;strokeColor=#006EAF;swimlaneFillColor=#60a917;fontColor=#ffffff;" parent="1" vertex="1">
          <mxGeometry x="790" y="727" width="170" height="60" as="geometry" />
        </mxCell>
        <mxCell id="YHKDQ4LGRL8nmd3NoLnM-44" value="&lt;div&gt;+comparator: COMPARATOR&lt;/div&gt;" style="text;html=1;strokeColor=#006EAF;fillColor=#1ba1e2;align=center;verticalAlign=middle;spacingLeft=4;spacingRight=4;overflow=hidden;rotatable=0;points=[[0,0.5],[1,0.5]];portConstraint=eastwest;whiteSpace=wrap;fontColor=#ffffff;" parent="YHKDQ4LGRL8nmd3NoLnM-43" vertex="1">
          <mxGeometry y="29" width="170" height="31" as="geometry" />
        </mxCell>
        <mxCell id="YHKDQ4LGRL8nmd3NoLnM-55" style="edgeStyle=orthogonalEdgeStyle;rounded=0;orthogonalLoop=1;jettySize=auto;html=1;entryX=0.527;entryY=1.027;entryDx=0;entryDy=0;endArrow=block;endFill=0;entryPerimeter=0;" parent="1" source="YHKDQ4LGRL8nmd3NoLnM-52" target="8lJpn536mVf1GUUGxUtD-21" edge="1">
          <mxGeometry relative="1" as="geometry">
            <mxPoint x="1150" y="494" as="targetPoint" />
            <Array as="points">
              <mxPoint x="1060" y="400" />
              <mxPoint x="1004" y="400" />
            </Array>
          </mxGeometry>
        </mxCell>
        <mxCell id="YHKDQ4LGRL8nmd3NoLnM-52" value="AnalogActuator" style="swimlane;fontStyle=1;align=center;verticalAlign=middle;childLayout=stackLayout;horizontal=1;startSize=29;horizontalStack=0;resizeParent=1;resizeParentMax=0;resizeLast=0;collapsible=0;marginBottom=0;html=1;whiteSpace=wrap;fillColor=#f0a30a;fontColor=#000000;strokeColor=#BD7000;swimlaneFillColor=#f0a30a;" parent="1" vertex="1">
          <mxGeometry x="1000" y="440" width="120" height="54" as="geometry" />
        </mxCell>
        <mxCell id="YHKDQ4LGRL8nmd3NoLnM-60" style="edgeStyle=orthogonalEdgeStyle;rounded=0;orthogonalLoop=1;jettySize=auto;html=1;endArrow=block;endFill=0;entryX=0.528;entryY=1.006;entryDx=0;entryDy=0;entryPerimeter=0;" parent="1" target="8lJpn536mVf1GUUGxUtD-21" edge="1">
          <mxGeometry relative="1" as="geometry">
            <mxPoint x="1252.009523809524" y="440" as="sourcePoint" />
            <mxPoint x="970" y="380" as="targetPoint" />
            <Array as="points">
              <mxPoint x="1230" y="440" />
              <mxPoint x="1230" y="400" />
              <mxPoint x="1004" y="400" />
            </Array>
          </mxGeometry>
        </mxCell>
        <mxCell id="YHKDQ4LGRL8nmd3NoLnM-54" value="DigitalActuator" style="swimlane;fontStyle=1;align=center;verticalAlign=middle;childLayout=stackLayout;horizontal=1;startSize=29;horizontalStack=0;resizeParent=1;resizeParentMax=0;resizeLast=0;collapsible=0;marginBottom=0;html=1;whiteSpace=wrap;fillColor=#f0a30a;fontColor=#000000;strokeColor=#BD7000;swimlaneFillColor=#f0a30a;" parent="1" vertex="1">
          <mxGeometry x="1185" y="440" width="140" height="54" as="geometry" />
        </mxCell>
        <mxCell id="YHKDQ4LGRL8nmd3NoLnM-61" style="edgeStyle=orthogonalEdgeStyle;rounded=0;orthogonalLoop=1;jettySize=auto;html=1;entryX=0.5;entryY=1;entryDx=0;entryDy=0;exitX=0.75;exitY=1;exitDx=0;exitDy=0;" parent="1" source="YHKDQ4LGRL8nmd3NoLnM-14" target="YHKDQ4LGRL8nmd3NoLnM-52" edge="1">
          <mxGeometry relative="1" as="geometry">
            <mxPoint x="260.0000000000002" y="654" as="sourcePoint" />
            <mxPoint x="1090" y="740" as="targetPoint" />
            <Array as="points">
              <mxPoint x="295" y="850" />
              <mxPoint x="1060" y="850" />
            </Array>
          </mxGeometry>
        </mxCell>
        <mxCell id="YHKDQ4LGRL8nmd3NoLnM-85" value="&lt;span style=&quot;font-size: 12px; text-wrap: wrap;&quot;&gt;actuator&lt;/span&gt;&lt;div style=&quot;font-size: 12px; text-wrap: wrap;&quot;&gt;1..1&lt;/div&gt;" style="edgeLabel;html=1;align=center;verticalAlign=middle;resizable=0;points=[];" parent="YHKDQ4LGRL8nmd3NoLnM-61" vertex="1" connectable="0">
          <mxGeometry x="-0.825" y="-3" relative="1" as="geometry">
            <mxPoint x="768" y="-179" as="offset" />
          </mxGeometry>
        </mxCell>
        <mxCell id="YHKDQ4LGRL8nmd3NoLnM-62" style="edgeStyle=orthogonalEdgeStyle;rounded=0;orthogonalLoop=1;jettySize=auto;html=1;entryX=0.5;entryY=1;entryDx=0;entryDy=0;" parent="1" source="YHKDQ4LGRL8nmd3NoLnM-13" target="YHKDQ4LGRL8nmd3NoLnM-54" edge="1">
          <mxGeometry relative="1" as="geometry">
            <Array as="points">
              <mxPoint x="100" y="950" />
              <mxPoint x="1255" y="950" />
            </Array>
            <mxPoint x="1250" y="500" as="targetPoint" />
          </mxGeometry>
        </mxCell>
        <mxCell id="YHKDQ4LGRL8nmd3NoLnM-86" value="&lt;span style=&quot;font-size: 12px; text-wrap: wrap;&quot;&gt;actuator&lt;/span&gt;&lt;div style=&quot;font-size: 12px; text-wrap: wrap;&quot;&gt;1..1&lt;/div&gt;" style="edgeLabel;html=1;align=center;verticalAlign=middle;resizable=0;points=[];" parent="YHKDQ4LGRL8nmd3NoLnM-62" vertex="1" connectable="0">
          <mxGeometry x="-0.8406" y="1" relative="1" as="geometry">
            <mxPoint x="1154" y="-221" as="offset" />
          </mxGeometry>
        </mxCell>
        <mxCell id="YHKDQ4LGRL8nmd3NoLnM-98" style="edgeStyle=orthogonalEdgeStyle;rounded=0;orthogonalLoop=1;jettySize=auto;html=1;exitX=0;exitY=0.5;exitDx=0;exitDy=0;endArrow=block;endFill=0;" parent="1" source="YHKDQ4LGRL8nmd3NoLnM-68" edge="1">
          <mxGeometry relative="1" as="geometry">
            <mxPoint x="610" y="120" as="targetPoint" />
          </mxGeometry>
        </mxCell>
        <mxCell id="YHKDQ4LGRL8nmd3NoLnM-68" value="Constant" style="swimlane;fontStyle=1;align=center;verticalAlign=middle;childLayout=stackLayout;horizontal=1;startSize=29;horizontalStack=0;resizeParent=1;resizeParentMax=0;resizeLast=0;collapsible=0;marginBottom=0;html=1;whiteSpace=wrap;fillColor=#1ba1e2;strokeColor=#006EAF;swimlaneFillColor=#60a917;fontColor=#ffffff;" parent="1" vertex="1">
          <mxGeometry x="780" y="122" width="140" height="54" as="geometry" />
        </mxCell>
        <mxCell id="YHKDQ4LGRL8nmd3NoLnM-69" value="+value: float" style="text;html=1;strokeColor=#006EAF;fillColor=#1ba1e2;align=center;verticalAlign=middle;spacingLeft=4;spacingRight=4;overflow=hidden;rotatable=0;points=[[0,0.5],[1,0.5]];portConstraint=eastwest;whiteSpace=wrap;fontColor=#ffffff;" parent="YHKDQ4LGRL8nmd3NoLnM-68" vertex="1">
          <mxGeometry y="29" width="140" height="25" as="geometry" />
        </mxCell>
        <mxCell id="YHKDQ4LGRL8nmd3NoLnM-74" style="edgeStyle=orthogonalEdgeStyle;rounded=0;orthogonalLoop=1;jettySize=auto;html=1;exitX=1;exitY=0.25;exitDx=0;exitDy=0;entryX=0.5;entryY=1.051;entryDx=0;entryDy=0;entryPerimeter=0;startArrow=diamond;startFill=1;" parent="1" source="8lJpn536mVf1GUUGxUtD-8" target="YHKDQ4LGRL8nmd3NoLnM-69" edge="1">
          <mxGeometry relative="1" as="geometry">
            <Array as="points">
              <mxPoint x="850" y="230" />
            </Array>
          </mxGeometry>
        </mxCell>
        <mxCell id="YHKDQ4LGRL8nmd3NoLnM-89" value="&lt;div style=&quot;font-size: 12px; text-wrap: wrap;&quot;&gt;constants&lt;/div&gt;&lt;div style=&quot;font-size: 12px; text-wrap: wrap;&quot;&gt;0..*&lt;/div&gt;" style="edgeLabel;html=1;align=center;verticalAlign=middle;resizable=0;points=[];" parent="YHKDQ4LGRL8nmd3NoLnM-74" vertex="1" connectable="0">
          <mxGeometry x="0.0556" relative="1" as="geometry">
            <mxPoint x="-1" as="offset" />
          </mxGeometry>
        </mxCell>
        <mxCell id="YHKDQ4LGRL8nmd3NoLnM-101" style="edgeStyle=orthogonalEdgeStyle;rounded=0;orthogonalLoop=1;jettySize=auto;html=1;endArrow=block;endFill=0;entryX=0.525;entryY=1.001;entryDx=0;entryDy=0;entryPerimeter=0;" parent="1" target="8lJpn536mVf1GUUGxUtD-21" edge="1">
          <mxGeometry relative="1" as="geometry">
            <mxPoint x="755" y="440" as="sourcePoint" />
            <mxPoint x="990" y="374" as="targetPoint" />
            <Array as="points">
              <mxPoint x="755" y="400" />
              <mxPoint x="1004" y="400" />
              <mxPoint x="1004" y="374" />
              <mxPoint x="1004" y="374" />
            </Array>
          </mxGeometry>
        </mxCell>
        <mxCell id="YHKDQ4LGRL8nmd3NoLnM-99" value="DigitalSensor" style="swimlane;fontStyle=1;align=center;verticalAlign=middle;childLayout=stackLayout;horizontal=1;startSize=29;horizontalStack=0;resizeParent=1;resizeParentMax=0;resizeLast=0;collapsible=0;marginBottom=0;html=1;whiteSpace=wrap;fillColor=#f0a30a;fontColor=#000000;strokeColor=#BD7000;swimlaneFillColor=#f0a30a;" parent="1" vertex="1">
          <mxGeometry x="700" y="440" width="110" height="54" as="geometry" />
        </mxCell>
        <mxCell id="YHKDQ4LGRL8nmd3NoLnM-108" style="edgeStyle=orthogonalEdgeStyle;rounded=0;orthogonalLoop=1;jettySize=auto;html=1;endArrow=block;endFill=0;exitX=0.5;exitY=0;exitDx=0;exitDy=0;entryX=0.529;entryY=1.043;entryDx=0;entryDy=0;entryPerimeter=0;" parent="1" source="YHKDQ4LGRL8nmd3NoLnM-104" target="8lJpn536mVf1GUUGxUtD-21" edge="1">
          <mxGeometry relative="1" as="geometry">
            <mxPoint x="913.0095238095239" y="434" as="sourcePoint" />
            <mxPoint x="970" y="380" as="targetPoint" />
            <Array as="points">
              <mxPoint x="913" y="440" />
              <mxPoint x="913" y="400" />
              <mxPoint x="1004" y="400" />
            </Array>
          </mxGeometry>
        </mxCell>
        <mxCell id="YHKDQ4LGRL8nmd3NoLnM-104" value="AnalogSensor" style="swimlane;fontStyle=1;align=center;verticalAlign=middle;childLayout=stackLayout;horizontal=1;startSize=29;horizontalStack=0;resizeParent=1;resizeParentMax=0;resizeLast=0;collapsible=0;marginBottom=0;html=1;whiteSpace=wrap;fillColor=#f0a30a;fontColor=#000000;strokeColor=#BD7000;swimlaneFillColor=#f0a30a;" parent="1" vertex="1">
          <mxGeometry x="860" y="440" width="110" height="54" as="geometry" />
        </mxCell>
        <mxCell id="OcX4DScceCDLS9gVsXSH-1" value="&amp;lt;&amp;lt;Static&amp;gt;&amp;gt;&lt;br&gt;PinAllocator" style="swimlane;fontStyle=1;align=center;verticalAlign=middle;childLayout=stackLayout;horizontal=1;startSize=29;horizontalStack=0;resizeParent=1;resizeParentMax=0;resizeLast=0;collapsible=0;marginBottom=0;html=1;whiteSpace=wrap;fillColor=#f0a30a;fontColor=#000000;strokeColor=#BD7000;swimlaneFillColor=#f0a30a;" vertex="1" parent="1">
          <mxGeometry x="1140" y="176" width="200" height="130" as="geometry" />
        </mxCell>
        <mxCell id="OcX4DScceCDLS9gVsXSH-3" value="+analogicPins: Array&amp;lt;Integer&amp;gt;&lt;br&gt;+digitalPins: Array&amp;lt;Integer&amp;gt;&lt;br&gt;-------------------------------------------------&lt;br&gt;+getAnalogicPin(): Integer&lt;br&gt;+getDigitalPin(): Integer" style="text;html=1;align=center;verticalAlign=middle;whiteSpace=wrap;rounded=0;" vertex="1" parent="OcX4DScceCDLS9gVsXSH-1">
          <mxGeometry y="29" width="200" height="101" as="geometry" />
        </mxCell>
        <mxCell id="OcX4DScceCDLS9gVsXSH-9" value="Use" style="endArrow=open;endSize=12;dashed=1;html=1;rounded=0;exitX=1.01;exitY=0.142;exitDx=0;exitDy=0;exitPerimeter=0;entryX=0.5;entryY=1;entryDx=0;entryDy=0;" edge="1" parent="1" source="8lJpn536mVf1GUUGxUtD-21" target="OcX4DScceCDLS9gVsXSH-3">
          <mxGeometry width="160" relative="1" as="geometry">
            <mxPoint x="1220" y="380" as="sourcePoint" />
            <mxPoint x="1380" y="380" as="targetPoint" />
            <Array as="points">
              <mxPoint x="1240" y="340" />
            </Array>
          </mxGeometry>
        </mxCell>
      </root>
    </mxGraphModel>
  </diagram>
</mxfile>
